<svg width="170" height="46" viewBox="0 0 170 46" fill="none" xmlns="http://www.w3.org/2000/svg">
<rect x="1.48523" y="1.01288" width="167.068" height="44" rx="22" fill="#212121" stroke="#212121"/>
<path d="M31.2413 38.0065C34.2082 38.0072 37.1086 37.128 39.5758 35.4802C42.043 33.8324 43.9661 31.49 45.102 28.7492C46.2378 26.0083 46.5353 22.9922 45.9569 20.0823C45.3785 17.1723 43.9502 14.4993 41.8526 12.4011C39.7549 10.303 37.0822 8.87406 34.1724 8.29501C31.2626 7.71595 28.2464 8.0128 25.5053 9.14802C22.7642 10.2832 20.4213 12.2058 18.7729 14.6726C17.1246 17.1394 16.2448 20.0397 16.2448 23.0065C16.2443 24.9762 16.6319 26.9267 17.3853 28.7465C18.1388 30.5664 19.2433 32.22 20.6359 33.6129C22.0285 35.0058 23.6819 36.1108 25.5016 36.8647C27.3213 37.6185 29.2717 38.0065 31.2413 38.0065V38.0065Z" fill="#FF0000"/>
<path d="M31.2411 15.1094C32.8042 15.1073 34.3328 15.569 35.6335 16.4361C36.9342 17.3031 37.9484 18.5365 38.5478 19.9801C39.1473 21.4238 39.305 23.0128 39.001 24.5461C38.6971 26.0794 37.9451 27.4881 36.8402 28.5939C35.7354 29.6997 34.3274 30.4529 32.7943 30.7582C31.2613 31.0635 29.6721 30.9072 28.2279 30.309C26.7838 29.7108 25.5495 28.6976 24.6814 27.3977C23.8132 26.0978 23.3502 24.5696 23.3508 23.0064C23.3535 20.914 24.1855 18.908 25.6644 17.4278C27.1433 15.9476 29.1486 15.1139 31.2411 15.1094ZM31.2411 13.901C29.4394 13.901 27.6781 14.4353 26.1801 15.4364C24.6821 16.4374 23.5146 17.8602 22.8252 19.5248C22.1359 21.1895 21.9557 23.0211 22.3075 24.7882C22.6592 26.5552 23.5271 28.1782 24.8013 29.452C26.0756 30.7258 27.6989 31.593 29.4661 31.9441C31.2333 32.2952 33.0649 32.1143 34.7292 31.4244C36.3936 30.7344 37.816 29.5664 38.8165 28.068C39.8169 26.5696 40.3506 24.8081 40.3499 23.0064C40.3499 21.8104 40.1143 20.6261 39.6565 19.5211C39.1987 18.4162 38.5277 17.4123 37.6818 16.5667C36.8359 15.7211 35.8317 15.0505 34.7266 14.5931C33.6215 14.1357 32.4371 13.9006 31.2411 13.901V13.901Z" fill="white"/>
<path d="M28.3458 27.4396L36.017 23.0067L28.3458 18.5772V27.4396Z" fill="white"/>
<path d="M58.9246 18.0809V18.8475H55.3699V18.0809H58.9246ZM55.5555 11.7382V18.8475H54.6131V11.7382H55.5555Z" fill="white"/>
<path d="M60.8484 13.5643V18.8475H59.9402V13.5643H60.8484ZM59.8719 12.163C59.8719 12.0165 59.9158 11.8928 60.0037 11.7919C60.0949 11.691 60.2283 11.6405 60.4041 11.6405C60.5766 11.6405 60.7085 11.691 60.7996 11.7919C60.894 11.8928 60.9412 12.0165 60.9412 12.163C60.9412 12.3029 60.894 12.4234 60.7996 12.5243C60.7085 12.6219 60.5766 12.6708 60.4041 12.6708C60.2283 12.6708 60.0949 12.6219 60.0037 12.5243C59.9158 12.4234 59.8719 12.3029 59.8719 12.163Z" fill="white"/>
<path d="M65.3748 17.4462C65.3748 17.316 65.3455 17.1955 65.2869 17.0848C65.2316 16.9709 65.116 16.8684 64.9402 16.7772C64.7677 16.6828 64.5073 16.6014 64.159 16.5331C63.866 16.4712 63.6007 16.398 63.3631 16.3134C63.1287 16.2287 62.9285 16.1262 62.7625 16.0057C62.5997 15.8853 62.4744 15.7437 62.3865 15.5809C62.2986 15.4182 62.2547 15.2277 62.2547 15.0096C62.2547 14.8013 62.3003 14.6044 62.3914 14.4188C62.4858 14.2333 62.6176 14.0689 62.7869 13.9257C62.9594 13.7824 63.1661 13.6701 63.407 13.5887C63.6479 13.5074 63.9165 13.4667 64.2127 13.4667C64.6359 13.4667 64.9972 13.5415 65.2967 13.6913C65.5962 13.841 65.8257 14.0412 65.9852 14.2919C66.1447 14.5393 66.2244 14.8143 66.2244 15.1171H65.3211C65.3211 14.9706 65.2772 14.829 65.1893 14.6923C65.1046 14.5523 64.9793 14.4367 64.8133 14.3456C64.6505 14.2544 64.4503 14.2089 64.2127 14.2089C63.962 14.2089 63.7586 14.2479 63.6023 14.326C63.4494 14.4009 63.337 14.4969 63.2654 14.6141C63.1971 14.7313 63.1629 14.855 63.1629 14.9852C63.1629 15.0829 63.1792 15.1708 63.2117 15.2489C63.2475 15.3238 63.3094 15.3938 63.3973 15.4589C63.4852 15.5207 63.6089 15.5793 63.7684 15.6346C63.9279 15.69 64.1313 15.7453 64.3787 15.8007C64.8117 15.8983 65.1681 16.0155 65.448 16.1522C65.728 16.2889 65.9363 16.4566 66.073 16.6552C66.2098 16.8537 66.2781 17.0946 66.2781 17.3778C66.2781 17.6089 66.2293 17.8205 66.1316 18.0126C66.0372 18.2046 65.8989 18.3706 65.7166 18.5106C65.5376 18.6473 65.3227 18.7548 65.0721 18.8329C64.8247 18.9078 64.5464 18.9452 64.2371 18.9452C63.7716 18.9452 63.3777 18.8622 63.0555 18.6962C62.7332 18.5302 62.4891 18.3153 62.323 18.0516C62.157 17.788 62.074 17.5096 62.074 17.2167H62.9822C62.9953 17.4641 63.0669 17.661 63.1971 17.8075C63.3273 17.9507 63.4868 18.0533 63.6756 18.1151C63.8644 18.1737 64.0516 18.203 64.2371 18.203C64.4845 18.203 64.6912 18.1705 64.8572 18.1053C65.0265 18.0402 65.1551 17.9507 65.243 17.8368C65.3309 17.7229 65.3748 17.5927 65.3748 17.4462Z" fill="white"/>
<path d="M69.6766 13.5643V14.2577H66.8201V13.5643H69.6766ZM67.7869 12.2802H68.6902V17.5389C68.6902 17.718 68.7179 17.8531 68.7732 17.9442C68.8286 18.0354 68.9002 18.0956 68.9881 18.1249C69.076 18.1542 69.1704 18.1688 69.2713 18.1688C69.3462 18.1688 69.4243 18.1623 69.5057 18.1493C69.5903 18.133 69.6538 18.12 69.6961 18.1102L69.701 18.8475C69.6294 18.8703 69.535 18.8915 69.4178 18.911C69.3038 18.9338 69.1655 18.9452 69.0027 18.9452C68.7814 18.9452 68.5779 18.9012 68.3924 18.8134C68.2068 18.7255 68.0587 18.579 67.948 18.3739C67.8406 18.1656 67.7869 17.8856 67.7869 17.5341V12.2802Z" fill="white"/>
<path d="M72.9285 18.9452C72.5607 18.9452 72.227 18.8833 71.9275 18.7596C71.6313 18.6327 71.3758 18.4553 71.1609 18.2274C70.9494 17.9996 70.7866 17.7294 70.6727 17.4169C70.5587 17.1044 70.5018 16.7626 70.5018 16.3915V16.1864C70.5018 15.7567 70.5652 15.3742 70.6922 15.0389C70.8191 14.7004 70.9917 14.4139 71.2098 14.1796C71.4279 13.9452 71.6753 13.7678 71.952 13.6473C72.2286 13.5269 72.5151 13.4667 72.8113 13.4667C73.1889 13.4667 73.5145 13.5318 73.7879 13.662C74.0646 13.7922 74.2908 13.9745 74.4666 14.2089C74.6424 14.44 74.7726 14.7134 74.8572 15.0292C74.9419 15.3417 74.9842 15.6835 74.9842 16.0546V16.4598H71.0389V15.7225H74.0809V15.6542C74.0678 15.4198 74.019 15.1919 73.9344 14.9706C73.853 14.7492 73.7228 14.5669 73.5438 14.4237C73.3647 14.2805 73.1206 14.2089 72.8113 14.2089C72.6063 14.2089 72.4175 14.2528 72.2449 14.3407C72.0724 14.4253 71.9243 14.5523 71.8006 14.7216C71.6769 14.8908 71.5809 15.0975 71.5125 15.3417C71.4441 15.5858 71.41 15.8674 71.41 16.1864V16.3915C71.41 16.6421 71.4441 16.8781 71.5125 17.0995C71.5841 17.3176 71.6867 17.5096 71.8201 17.6757C71.9568 17.8417 72.1212 17.9719 72.3133 18.0663C72.5086 18.1607 72.73 18.2079 72.9773 18.2079C73.2964 18.2079 73.5665 18.1428 73.7879 18.0126C74.0092 17.8824 74.2029 17.7082 74.3689 17.4901L74.9158 17.9247C74.8019 18.0972 74.657 18.2616 74.4813 18.4178C74.3055 18.5741 74.089 18.701 73.8318 18.7987C73.5779 18.8964 73.2768 18.9452 72.9285 18.9452Z" fill="white"/>
<path d="M76.9422 14.6923V18.8475H76.0389V13.5643H76.8934L76.9422 14.6923ZM76.7273 16.0057L76.3514 15.9911C76.3546 15.6298 76.4083 15.2961 76.5125 14.9901C76.6167 14.6809 76.7632 14.4123 76.952 14.1844C77.1408 13.9566 77.3654 13.7808 77.6258 13.6571C77.8895 13.5302 78.1808 13.4667 78.4998 13.4667C78.7602 13.4667 78.9946 13.5025 79.2029 13.5741C79.4113 13.6425 79.5887 13.7531 79.7352 13.9061C79.8849 14.0591 79.9988 14.2577 80.077 14.5018C80.1551 14.7427 80.1941 15.0373 80.1941 15.3856V18.8475H79.2859V15.3759C79.2859 15.0992 79.2453 14.8778 79.1639 14.7118C79.0825 14.5425 78.9637 14.4205 78.8074 14.3456C78.6512 14.2675 78.4591 14.2284 78.2313 14.2284C78.0066 14.2284 77.8016 14.2756 77.616 14.37C77.4337 14.4644 77.2758 14.5946 77.1424 14.7606C77.0122 14.9266 76.9096 15.1171 76.8348 15.3319C76.7632 15.5435 76.7273 15.7681 76.7273 16.0057Z" fill="white"/>
<path d="M83.8074 16.2645V16.1522C83.8074 15.7714 83.8628 15.4182 83.9734 15.0927C84.0841 14.7639 84.2436 14.479 84.452 14.2382C84.6603 13.994 84.9126 13.8052 85.2088 13.6718C85.505 13.535 85.837 13.4667 86.2049 13.4667C86.576 13.4667 86.9096 13.535 87.2059 13.6718C87.5053 13.8052 87.7592 13.994 87.9676 14.2382C88.1792 14.479 88.3403 14.7639 88.451 15.0927C88.5617 15.4182 88.617 15.7714 88.617 16.1522V16.2645C88.617 16.6454 88.5617 16.9986 88.451 17.3241C88.3403 17.6496 88.1792 17.9344 87.9676 18.1786C87.7592 18.4195 87.507 18.6083 87.2107 18.745C86.9178 18.8785 86.5857 18.9452 86.2147 18.9452C85.8436 18.9452 85.5099 18.8785 85.2137 18.745C84.9175 18.6083 84.6635 18.4195 84.452 18.1786C84.2436 17.9344 84.0841 17.6496 83.9734 17.3241C83.8628 16.9986 83.8074 16.6454 83.8074 16.2645ZM84.7107 16.1522V16.2645C84.7107 16.5282 84.7417 16.7772 84.8035 17.0116C84.8654 17.2427 84.9581 17.4478 85.0818 17.6268C85.2088 17.8059 85.3667 17.9475 85.5555 18.0516C85.7443 18.1525 85.964 18.203 86.2147 18.203C86.462 18.203 86.6785 18.1525 86.8641 18.0516C87.0529 17.9475 87.2091 17.8059 87.3328 17.6268C87.4565 17.4478 87.5493 17.2427 87.6111 17.0116C87.6762 16.7772 87.7088 16.5282 87.7088 16.2645V16.1522C87.7088 15.8918 87.6762 15.646 87.6111 15.4149C87.5493 15.1805 87.4549 14.9738 87.3279 14.7948C87.2042 14.6125 87.048 14.4693 86.8592 14.3651C86.6736 14.2609 86.4555 14.2089 86.2049 14.2089C85.9575 14.2089 85.7394 14.2609 85.5506 14.3651C85.365 14.4693 85.2088 14.6125 85.0818 14.7948C84.9581 14.9738 84.8654 15.1805 84.8035 15.4149C84.7417 15.646 84.7107 15.8918 84.7107 16.1522Z" fill="white"/>
<path d="M90.6531 14.6923V18.8475H89.7498V13.5643H90.6043L90.6531 14.6923ZM90.4383 16.0057L90.0623 15.9911C90.0656 15.6298 90.1193 15.2961 90.2234 14.9901C90.3276 14.6809 90.4741 14.4123 90.6629 14.1844C90.8517 13.9566 91.0763 13.7808 91.3367 13.6571C91.6004 13.5302 91.8917 13.4667 92.2107 13.4667C92.4712 13.4667 92.7055 13.5025 92.9139 13.5741C93.1222 13.6425 93.2996 13.7531 93.4461 13.9061C93.5958 14.0591 93.7098 14.2577 93.7879 14.5018C93.866 14.7427 93.9051 15.0373 93.9051 15.3856V18.8475H92.9969V15.3759C92.9969 15.0992 92.9562 14.8778 92.8748 14.7118C92.7934 14.5425 92.6746 14.4205 92.5184 14.3456C92.3621 14.2675 92.1701 14.2284 91.9422 14.2284C91.7176 14.2284 91.5125 14.2756 91.327 14.37C91.1447 14.4644 90.9868 14.5946 90.8533 14.7606C90.7231 14.9266 90.6206 15.1171 90.5457 15.3319C90.4741 15.5435 90.4383 15.7681 90.4383 16.0057Z" fill="white"/>
<path d="M57.5959 34.1453V30.0333L53.9159 23.2493H55.5799L58.3959 28.5293L61.2759 23.2493H62.8759L59.1959 30.0333L59.1799 34.1453H57.5959Z" fill="white"/>
<path d="M66.0776 34.3853C64.979 34.3853 64.131 34.0386 63.5336 33.3453C62.9363 32.6519 62.6376 31.6759 62.6376 30.4173C62.6376 29.1693 62.9363 28.1986 63.5336 27.5053C64.131 26.8119 64.979 26.4653 66.0776 26.4653C67.1763 26.4653 68.0243 26.8119 68.6216 27.5053C69.219 28.1986 69.5176 29.1693 69.5176 30.4173C69.5176 31.6759 69.219 32.6519 68.6216 33.3453C68.0243 34.0386 67.1763 34.3853 66.0776 34.3853ZM66.0776 33.0893C66.707 33.0893 67.187 32.8599 67.5176 32.4013C67.859 31.9319 68.0296 31.2706 68.0296 30.4173C68.0296 29.5853 67.859 28.9346 67.5176 28.4653C67.187 27.9959 66.707 27.7613 66.0776 27.7613C65.459 27.7613 64.979 27.9959 64.6376 28.4653C64.2963 28.9346 64.1256 29.5853 64.1256 30.4173C64.1256 31.2706 64.2963 31.9319 64.6376 32.4013C64.979 32.8599 65.459 33.0893 66.0776 33.0893Z" fill="white"/>
<path d="M74.0131 34.3693C73.1385 34.3693 72.4611 34.1079 71.9811 33.5853C71.5011 33.0626 71.2611 32.2893 71.2611 31.2653V26.7053H72.7491V30.9453C72.7491 31.3079 72.7811 31.6439 72.8451 31.9533C72.9198 32.2626 73.0638 32.5133 73.2771 32.7053C73.5011 32.8973 73.8318 32.9933 74.2691 32.9933C74.8238 32.9933 75.2505 32.8119 75.5491 32.4493C75.8585 32.0866 76.0131 31.5373 76.0131 30.8013V26.7053H77.5011V34.1453H76.1571V33.3133C75.9011 33.6653 75.5865 33.9319 75.2131 34.1133C74.8505 34.2839 74.4505 34.3693 74.0131 34.3693Z" fill="white"/>
<path d="M81.2553 34.1453V24.6733H77.8313V23.2493H86.5033L86.0393 24.6733H82.8553V34.1453H81.2553Z" fill="white"/>
<path d="M89.1819 34.3693C88.3072 34.3693 87.6299 34.1079 87.1499 33.5853C86.6699 33.0626 86.4299 32.2893 86.4299 31.2653V26.7053H87.9179V30.9453C87.9179 31.3079 87.9499 31.6439 88.0139 31.9533C88.0886 32.2626 88.2326 32.5133 88.4459 32.7053C88.6699 32.8973 89.0006 32.9933 89.4379 32.9933C89.9926 32.9933 90.4192 32.8119 90.7179 32.4493C91.0272 32.0866 91.1819 31.5373 91.1819 30.8013V26.7053H92.6699V34.1453H91.3259V33.3133C91.0699 33.6653 90.7552 33.9319 90.3819 34.1133C90.0192 34.2839 89.6192 34.3693 89.1819 34.3693Z" fill="white"/>
<path d="M98.7438 34.3693C97.7944 34.3693 97.0584 34.0279 96.5358 33.3453V34.1453H95.1278V23.2493H96.6158V27.4413C97.1384 26.8013 97.8478 26.4813 98.7438 26.4813C99.7251 26.4813 100.498 26.8279 101.064 27.5213C101.64 28.2039 101.928 29.1693 101.928 30.4173C101.928 31.6759 101.64 32.6519 101.064 33.3453C100.498 34.0279 99.7251 34.3693 98.7438 34.3693ZM98.5198 33.0733C99.1278 33.0733 99.5971 32.8493 99.9278 32.4013C100.269 31.9426 100.44 31.2813 100.44 30.4173C100.44 29.5959 100.269 28.9506 99.9278 28.4813C99.5971 28.0119 99.1278 27.7773 98.5198 27.7773C97.9118 27.7773 97.4424 28.0119 97.1118 28.4813C96.7811 28.9506 96.6158 29.5959 96.6158 30.4173C96.6158 31.2706 96.7811 31.9266 97.1118 32.3853C97.4424 32.8439 97.9118 33.0733 98.5198 33.0733Z" fill="white"/>
<path d="M106.86 34.3693C105.761 34.3693 104.902 34.0279 104.284 33.3453C103.676 32.6519 103.372 31.7026 103.372 30.4973C103.372 29.7186 103.5 29.0306 103.756 28.4333C104.012 27.8253 104.385 27.3506 104.876 27.0093C105.366 26.6573 105.974 26.4813 106.7 26.4813C107.756 26.4813 108.55 26.8226 109.084 27.5053C109.617 28.1773 109.884 29.0893 109.884 30.2413C109.884 30.3693 109.873 30.4866 109.852 30.5933C109.841 30.6999 109.83 30.8226 109.82 30.9613H104.828C104.881 31.7186 105.1 32.2679 105.484 32.6093C105.878 32.9506 106.401 33.1213 107.052 33.1213C107.393 33.1213 107.697 33.0733 107.964 32.9773C108.23 32.8706 108.518 32.6893 108.828 32.4333L109.58 33.3933C109.174 33.7346 108.753 33.9853 108.316 34.1453C107.889 34.2946 107.404 34.3693 106.86 34.3693ZM106.716 27.7293C106.129 27.7293 105.681 27.9266 105.372 28.3213C105.062 28.7159 104.881 29.2439 104.828 29.9053H108.556C108.534 29.2226 108.374 28.6893 108.076 28.3053C107.788 27.9213 107.334 27.7293 106.716 27.7293Z" fill="white"/>
<path d="M116.029 23.2493H117.869L121.325 31.4733L124.893 23.2493H126.621V34.1453H125.069V26.1133L121.853 33.6973H120.845L117.597 26.1453V34.1453H116.029V23.2493Z" fill="white"/>
<path d="M131.948 34.3693C131.073 34.3693 130.396 34.1079 129.916 33.5853C129.436 33.0626 129.196 32.2893 129.196 31.2653V26.7053H130.684V30.9453C130.684 31.3079 130.716 31.6439 130.78 31.9533C130.854 32.2626 130.998 32.5133 131.212 32.7053C131.436 32.8973 131.766 32.9933 132.204 32.9933C132.758 32.9933 133.185 32.8119 133.484 32.4493C133.793 32.0866 133.948 31.5373 133.948 30.8013V26.7053H135.436V34.1453H134.092V33.3133C133.836 33.6653 133.521 33.9319 133.148 34.1133C132.785 34.2839 132.385 34.3693 131.948 34.3693Z" fill="white"/>
<path d="M140.037 34.3853C139.515 34.3853 139.029 34.3106 138.581 34.1613C138.133 34.0119 137.712 33.8039 137.317 33.5373L137.829 32.3533C138.235 32.6093 138.608 32.7959 138.949 32.9133C139.301 33.0199 139.648 33.0733 139.989 33.0733C140.459 33.0733 140.816 32.9933 141.061 32.8333C141.307 32.6626 141.429 32.4333 141.429 32.1453C141.429 31.8146 141.291 31.5639 141.013 31.3933C140.736 31.2119 140.368 31.0359 139.909 30.8653C139.216 30.6093 138.661 30.3213 138.245 30.0013C137.84 29.6706 137.632 29.2013 137.621 28.5933C137.611 27.9213 137.845 27.4039 138.325 27.0413C138.816 26.6679 139.461 26.4813 140.261 26.4813C141.104 26.4813 141.877 26.7106 142.581 27.1693L142.069 28.3213C141.749 28.1399 141.451 28.0066 141.173 27.9213C140.896 27.8253 140.597 27.7773 140.277 27.7773C139.893 27.7773 139.589 27.8466 139.365 27.9853C139.141 28.1133 139.029 28.3159 139.029 28.5933C139.029 28.8813 139.163 29.0999 139.429 29.2493C139.707 29.3986 140.117 29.5799 140.661 29.7933C141.333 30.0493 141.872 30.3479 142.277 30.6893C142.683 31.0199 142.885 31.4999 142.885 32.1293C142.885 32.8333 142.624 33.3879 142.101 33.7933C141.589 34.1879 140.901 34.3853 140.037 34.3853Z" fill="white"/>
<path d="M146.871 34.2253C146.156 34.2253 145.644 34.0599 145.335 33.7293C145.025 33.3879 144.871 32.8333 144.871 32.0653V26.7053H146.359V31.9373C146.359 32.2679 146.401 32.5026 146.487 32.6413C146.572 32.7693 146.721 32.8333 146.935 32.8333H147.223V34.2253H146.871ZM145.623 25.1373C145.335 25.1373 145.1 25.0466 144.919 24.8653C144.737 24.6839 144.647 24.4493 144.647 24.1613C144.647 23.8733 144.737 23.6386 144.919 23.4573C145.111 23.2759 145.345 23.1853 145.623 23.1853C145.9 23.1853 146.129 23.2813 146.311 23.4733C146.503 23.6546 146.599 23.8786 146.599 24.1453C146.599 24.4333 146.508 24.6733 146.327 24.8653C146.145 25.0466 145.911 25.1373 145.623 25.1373Z" fill="white"/>
<path d="M151.882 34.3853C150.752 34.3853 149.882 34.0386 149.274 33.3453C148.677 32.6519 148.378 31.6813 148.378 30.4333C148.378 29.2173 148.672 28.2519 149.258 27.5373C149.845 26.8226 150.709 26.4653 151.85 26.4653C152.309 26.4653 152.73 26.5293 153.114 26.6573C153.509 26.7746 153.904 26.9773 154.298 27.2653L153.562 28.3533C153.274 28.1399 153.008 27.9906 152.762 27.9053C152.517 27.8093 152.24 27.7613 151.93 27.7613C151.258 27.7613 150.746 28.0066 150.394 28.4973C150.042 28.9879 149.866 29.6333 149.866 30.4333C149.866 31.2866 150.037 31.9426 150.378 32.4013C150.73 32.8599 151.248 33.0893 151.93 33.0893C152.208 33.0893 152.501 33.0413 152.81 32.9453C153.12 32.8493 153.413 32.6893 153.69 32.4653L154.458 33.4093C154.096 33.7613 153.706 34.0119 153.29 34.1613C152.885 34.3106 152.416 34.3853 151.882 34.3853Z" fill="white"/>
</svg>
